<?xml version="1.0" encoding="utf-8"?>
<!-- Generator: Adobe Illustrator 19.2.0, SVG Export Plug-In . SVG Version: 6.00 Build 0)  -->
<svg version="1.1" id="Vrstva_1" xmlns="http://www.w3.org/2000/svg" xmlns:xlink="http://www.w3.org/1999/xlink" x="0px" y="0px"
	 viewBox="0 0 146.4 129.6" style="enable-background:new 0 0 146.4 129.6;" xml:space="preserve">
<style type="text/css">
	.st0{fill:#F2994A;}
</style>
<path class="st0" d="M96.5,120.8l1.4,0C97.9,120.8,97.4,120.8,96.5,120.8 M75.8,120c0.1,0,0.2,0,0.2,0c6.8,0.3,13.7,0.6,20.6,0.7
	c-4.6-0.2-19.5-0.8-20.6-0.8L75.8,120z M73.1,107c2,0.3,3.2,0.6,3.2,0.7c0,0.1,23.5,2.1,25.5,2.3c31.6,2.6-22.7-2.2-25.5-2.4
	C76.3,107.3,75,107.1,73.1,107z M21.7,60.5l-0.3,0.1c0.5,7.2,0.9,14.8,1.4,19c3.5,32.5,2.8,22.3,0.3,0
	C22.7,75.3,22.1,67.7,21.7,60.5z M25.7,59.7c-0.3,0-0.5,0.1-0.8,0.1c0.5,5.1,1.3,12.6,2.1,19.2c0.5,4,2.1,13.5,3.4,21.7
	c0.8,0.1,1.6,0.3,2.5,0.4c-1.6-8.9-3.8-19.6-4.2-22.2c-0.3-2-0.6-4-0.9-5.9C26.9,67,26.2,62.7,25.7,59.7z M104.9,41.7l-0.1-0.2
	c-0.9-1.7-1.3-1.5-0.2-0.1L104.9,41.7z M68.3,129c3,0,5.7-0.1,7.4-0.4c2.1-0.1,4.4-0.2,6.8-0.3c-2.7,0-5,0.1-6.8,0.1
	C74.4,128.7,71.6,128.9,68.3,129z M55,128.6c-4.3-0.3-8.1-0.6-10.5-0.8c-0.8-0.1-1.5-0.1-2.3-0.2c0.8,0.1,1.5,0.1,2.3,0.2
	c2.9,0.3,5.9,0.5,8.8,0.7L55,128.6z M80.8,49.6c0.2,2.6,0,5.2-0.8,6.9c-1.6,2.5-2.4,1.9,0.6,4.5c3.2,2.4,1.2-1.4,2.4-4.9
	c0.8-2.3,0.9-4.6,0.8-7C82.9,49.3,81.8,49.5,80.8,49.6z M67.6,52c-1.7,0.4-3.5,0.7-5.3,1c-10,1.8-20.1,3.5-30.1,5.4
	c0.7,8.3,1.2,17.4,1.6,19.8c0.1,0.6,0.2,1.2,0.2,1.8c0.4,2.9,2.7,13.5,4.2,21.8c3,0.5,5.9,1,8.9,1.5c2,0.5,18.9,2.4,26.1,3.6
	c-4.4-0.5-12-0.9-13.2-0.9c-10.1,0.1,14.6,3.2,16.3,4.1c11.4,1.1,28.7,1.6,39.2,3.4c-0.5,0.8-36.4-1.8-39.3-2
	c-0.6-0.4-20.1-3.4-23.3-4.2c-14.7-3.5,12,4,14.1,4.5c5.3,1.4-18.9-2.8-20.5-3.1c-2.5-0.4-4.9-0.8-7.4-1.2c0.1,0.7,0.2,1.3,0.3,1.9
	c2.3,0.4,4.6,0.7,6.9,1.1c2.7,0.4,5.4,0.8,8.2,1.3c31.9,5.4,7,0.5-4.7-0.1c-1.2,0.7,22.3,3.3,26.4,4.3c0,0.2,22.6,1.3,24.5,1.3
	c13.9,0.6-23-0.4-24.5-0.4c-3.5-0.1-30.1-2.7-30.2-2.7c-17.9-1-12.4-3.1-13.6,0.2c3.2,0.4,6.5,1.1,9.6,1.8c1.2,0.3,2.6,0.4,3.8,0.6
	c2.6,0.5,27.7,2.8,30.1,3.2c-3.9-0.2-30.1-2.7-30.2-2.5c0,0-3.1-0.3-3.5-0.1c-1.4,0.7,3.2,1.7,3.4,1.7c0.2,0.1,2.3,0.4,2.3,0.4
	c-0.8,0.1-1.6,0.1-2.4,0.2c-1.9,0.2-3.8,0.3-5.8,0.1c-2.8-0.3-9.5-1.4-11.9-1.1c-1.7,0.3,7.7,1.6,9.1,1.9c2.8,0.7,5.6,0.8,8.4,1.3
	c7.5,0.8,23.6,2.6,30.7,2.2c9.5,0,19-0.1,28.5-0.3c-5.8,1.3-11.6,2.6-17.4,3.9c2.6-0.1,5.3-0.1,7.9-0.2c-0.1,0-0.1,0.1-0.2,0.1
	c10.6-0.7,21.8-1.3,29.1-1c0,0,0,0,0,0.1c-5.8,1.2-20.3,1.5-32.4,1.6c-5,0.6-13.2,0.8-15.6,0.9c-2.4,0.4-7.1,0.3-12.2,0
	c-6.7,0.1-14,0.1-17.1,0.1c-0.7,0-1.3,0-2,0c-6.8,0.3-13.4,0.4-20.2,0.2c-2.3-0.1-4.8-0.4-7.1-0.8c-0.9-0.1-1.7-0.4-2.6-0.7
	c-0.4-0.1-0.8-0.4-1.2-0.6c-0.7-0.4-1.1-0.9-1.5-1.6c-5-8.5-7.3-34.1-8.4-44.1c-0.8-7.3-1.4-14.6-1.9-22C1,53.9-0.3,43.2,0,37.7
	c0.2-0.7,0.4-1.2,0.8-1.8c0.1-0.3,0.6-0.7,0.8-0.9c0.3-0.3,0.8-0.6,1.2-0.8c0.5-0.3,1.2-0.5,1.7-0.8c1.3-0.5,2.6-0.9,3.9-1.3
	c4.1-1.4,8.3-2.5,12.5-3.5c12.4-3.6,24.9-6.8,37.4-9.9c10.4-2.6,20.9-5.3,31.3-7.7c2.7-0.6,5.1-1.3,7.8-2.1c4.2-1,9.2-1.6,13.5-2
	c0.7-0.1,1.4-0.1,2.1-0.2c2.4-0.2,5.1,0,7.5,0.1c1.8,0.2,3.4,0.6,5.1,1.1c6,2.3,10,3.9,0.4-1c-1.7-0.9-3.3-1.5-5.1-2.1
	c-2.4-0.8-4.7-1.4-7.1-2c-0.2,0-0.5-0.1-0.6-0.1c-4.5-1-11.5-0.9-16.2-0.9c-3,0-21.4,1.2-18.5-0.1C83.4,0.3,92.1,0.1,97.1,0
	c5.6-0.1,10.8,0,16.4,0.7c2.8,0.3,5.4,0.7,8.2,1.4c2,0.5,3.8,1.1,5.7,1.9c3.8,1.6,6.3,3.4,9.3,6.3c1.1,1.2,2,2.3,2.9,3.6
	c2.5,3.7,4,6.8,5.4,11c1.4,5,1.2,8.9,1.2,14.1c-0.2,2.5-0.3,5.1-0.4,7.6c-0.4,7-1,14.8-2.5,21.7c-0.4,1.4-1.2,7.4-4,6.1
	c-0.8-0.4-2.1-4.6-2.3-5.3c-2.9-8.7-5.1-17.1-8.3-25.7c-1.3-3.5-2.5-6.6-4.3-9.9c-1.3-2.5-2.6-4.6-4.8-6.5c-0.4-0.4-0.8-0.5-1.3-0.7
	c-0.2-0.1-1.4-0.3-1.6-0.3c-1.2-0.2-3.3-0.2-4.5-0.1c-4.6,0.3-9.1,0.7-13.7,1.2c-7.3,1-14.7,2.1-22.1,2.9c-5.5,0.5-11,0.9-16.4,1.5
	c-3.3,0.4-5,1.4-7.1,3.9c-2.4,3.2,6.5,0.9,7.6,0.7c9.7-1.9,18.6-3.7,28.5-4.7c3.2-0.3,6.5-0.6,9.6-1c4.3-0.5,9-0.7,13.3-0.9
	c1.3-0.1,2.7,0.1,4,0.2c0.3,0,0.7,0.1,1,0.2c0.2,0.1,0.2,0.1,0.1-0.1c1.7,1.5,2.8,3.5,3.9,5.4c1.6,3.1,2.7,6.1,3.8,9.4
	c2.9,8.4,4.8,16.7,6.5,25.4c0.8,4.4,1.6,8.8,2.3,13.2c0.8,6,2.1,4.9,6.5,3c3.9,0.6-3.3,22.3-11.5,28.1c-7.1,3.6-7.5-14.8-10-23.7
	c-1.7-6.1-3-12.4-4.4-18.6c-1.8-7.8-3.7-15.6-6.3-23.2c-0.2-0.7-0.5-1.4-0.7-2.1c-2.6,0.2-5.1,0.4-7.7,0.6c-16.3,2-0.6-2.2-1.7,21.4
	c0,4.8-3.7,11.7-5.7,16.1c-0.8,1.7-1.7,3-2.8,4.5c-3.3,3.8-6.3,6.5-10.9,8.7c-1.9,0.7-3.8,1.1-5.8,1.3c-2.9,0.1-1.7,0.2-0.2-0.6
	c0.2-0.1,0.3-0.2,0.4-0.3c0.7-0.8-0.3-0.9-1-1c-1.8-0.3-5.1-0.2-5.9-2.2c0,0,2.4,0.5,5.4,0.8c0.6,0,1.3,0.1,1.9,0.3
	c3.1,0.9-2.2-1.6-2.5-1.7c0,0-0.8-0.4-0.9-0.5c-0.6-0.3,0.4-0.1,0.6,0c6.3,0.3,11.1-3.2,15.1-7.7c1.4-1.7,2-3,2.5-5.2
	c1.2-6.4-1.9,0.6-4.3,3.7c-3,3.4-7.8,7.5-12.7,7.5c-0.1,0-1.4-0.1-1.4-0.1c-2-0.4-1.4-0.3-0.1-0.2c0.1,0,1.9,0,2-0.3
	c0.1-0.4-2.1-0.3-2.2-0.3c0,0-4.5,0.1-5,0.1c-1.1,0,2.9-1.2,4.3-1.7c5-1.8,8.1-3.5,11.7-7.6c0.5-0.2,6.8-8.6,7-9.5
	c-0.1,0-6.4,8.1-7.4,9.2c-19.9,15.2-8.7-3.5-14.2,0.9c-1.4,0.7-3.4,1.9-4.4,3.2C59.5,73.4,71.4,68.7,67.6,52z"/>
</svg>
